<svg version="1" xmlns="http://www.w3.org/2000/svg" width="933.333" height="933.333"
  viewBox="0 0 700.000000 700.000000">
  <path
    d="M409.7 102c-8.7 2.2-17.2 9.1-20.3 16.5-.7 1.8-31.1 102.4-67.5 223.6-72.5 241.3-68.8 227.6-64.2 238 4.3 9.6 13.4 16.3 23.9 17.5 10.6 1.3 22.5-4.9 27.6-14.2 1.5-2.8 31.1-99.7 68.9-225.4 61.5-204.6 66.2-221 66.3-228 0-6.2-.4-8.3-2.6-12.6-6.1-11.6-20.1-18.3-32.1-15.4zM207.3 170.4c-6.4 3-184.7 158.5-187.8 163.7-3.4 5.7-4.3 9.2-4.4 16-.1 5.4.4 7.6 2.9 12.6 2.9 5.8 7.8 10.3 93.5 85.3 69.9 61.1 91.8 79.7 96.1 81.7 4.8 2.2 6.6 2.5 12.8 2.1 8.8-.6 13.8-3 19.8-9.7 8.2-9.1 9.8-21.2 4.3-32-3-6-.7-3.9-86.4-78.6-38.5-33.6-70-61.2-70-61.5 0-.3 30.2-26.8 67.1-59 93.7-81.9 86.6-75.4 89.7-81.9 5.1-11.1 3-23.7-5.5-32.5-5.4-5.6-10.8-7.9-19.4-8.3-6.4-.4-8.2 0-12.7 2.1zM471.7 169.4c-6 2.2-10.5 5.7-14.2 11.1-6.3 9.3-7 19.7-2 29.5 2.9 5.7-2.2 1.1 89.3 81 36.9 32.2 67.1 58.7 67.1 59-.1.3-33.4 29.5-74.1 65-40.7 35.5-75.9 66.6-78.2 69.2-10.3 11.3-9.8 27.9 1.1 39.1 5.4 5.6 10.6 7.9 18.9 8.5 6.2.4 8 .1 12.8-2.1 4.4-2 26-20.4 96.1-81.8 85.7-74.9 90.6-79.4 93.5-85.2 4.6-9.2 4.1-19.1-1.5-28.6-1.1-1.8-42.6-38.9-92.2-82.3-65.5-57.2-91.7-79.6-95.5-81.3-6.1-2.8-14.9-3.3-21.1-1.1z" />
</svg>
